<svg xmlns="http://www.w3.org/2000/svg" xmlns:xlink="http://www.w3.org/1999/xlink" width="500" zoomAndPan="magnify" viewBox="0 0 375 374.999991" height="500" preserveAspectRatio="xMidYMid meet" version="1.0"><defs><g/><clipPath id="932ec3c575"><path d="M 150.4375 174 L 224.6875 174 L 224.6875 225.605469 L 150.4375 225.605469 Z M 150.4375 174 " clip-rule="nonzero"/></clipPath><clipPath id="749aa7200b"><path d="M 155 90.605469 L 220 90.605469 L 220 170 L 155 170 Z M 155 90.605469 " clip-rule="nonzero"/></clipPath></defs><rect x="-37.5" width="450" fill="#ffffff" y="-37.499999" height="449.999989" fill-opacity="1"/><rect x="-37.5" width="450" fill="#ffffff" y="-37.499999" height="449.999989" fill-opacity="1"/><g clip-path="url(#932ec3c575)"><path fill="#393536" d="M 158.335938 174.542969 L 150.496094 198.675781 L 161.878906 206.941406 L 168.585938 174.542969 Z M 181.886719 174.542969 L 177.160156 218.046875 L 187.5625 225.605469 L 197.96875 218.046875 L 193.238281 174.542969 Z M 216.789062 174.542969 L 206.539062 174.542969 L 213.246094 206.941406 L 224.628906 198.675781 Z M 195.363281 174.542969 L 199.941406 216.613281 L 211.367188 208.308594 L 204.378906 174.542969 Z M 170.746094 174.542969 L 163.757812 208.308594 L 175.183594 216.613281 L 179.757812 174.542969 L 170.746094 174.542969 " fill-opacity="1" fill-rule="nonzero"/></g><g clip-path="url(#749aa7200b)"><path fill="#393536" d="M 212.5 162.519531 C 212.5 164.585938 210.820312 166.265625 208.75 166.265625 L 199.144531 166.265625 C 197.074219 166.265625 195.398438 164.585938 195.398438 162.519531 C 195.398438 160.449219 197.074219 158.769531 199.144531 158.769531 L 208.75 158.769531 C 210.820312 158.769531 212.5 160.449219 212.5 162.519531 Z M 186.933594 112.257812 C 176.335938 112.257812 167.742188 120.851562 167.742188 131.449219 C 167.742188 142.046875 176.335938 150.640625 186.933594 150.640625 C 188.277344 150.640625 189.589844 150.5 190.855469 150.238281 C 188.882812 150.894531 186.777344 151.25 184.582031 151.25 C 173.644531 151.25 164.78125 142.386719 164.78125 131.449219 C 164.78125 120.511719 173.644531 111.644531 184.582031 111.644531 C 186.777344 111.644531 188.882812 112.003906 190.855469 112.660156 C 189.589844 112.398438 188.277344 112.257812 186.933594 112.257812 Z M 187.726562 140.03125 C 188.328125 140.03125 188.914062 139.96875 189.480469 139.851562 C 188.597656 140.144531 187.65625 140.304688 186.675781 140.304688 C 181.78125 140.304688 177.816406 136.339844 177.816406 131.449219 C 177.816406 126.558594 181.78125 122.59375 186.675781 122.59375 C 187.65625 122.59375 188.597656 122.75 189.480469 123.046875 C 188.914062 122.929688 188.328125 122.867188 187.726562 122.867188 C 182.984375 122.867188 179.144531 126.710938 179.144531 131.449219 C 179.144531 136.1875 182.984375 140.03125 187.726562 140.03125 Z M 179.726562 162.519531 C 179.726562 164.585938 178.050781 166.265625 175.980469 166.265625 L 166.375 166.265625 C 164.304688 166.265625 162.625 164.585938 162.625 162.519531 C 162.625 160.449219 164.304688 158.769531 166.375 158.769531 L 175.980469 158.769531 C 178.050781 158.769531 179.726562 160.449219 179.726562 162.519531 Z M 218.179688 154.21875 C 215.753906 151.792969 211.882812 149.910156 207.214844 148.570312 C 211.210938 143.992188 213.628906 138.003906 213.628906 131.449219 C 213.628906 120.949219 207.421875 111.902344 198.480469 107.773438 L 199.054688 104.058594 C 199.300781 102.460938 200.675781 101.28125 202.292969 101.28125 C 204.101562 101.28125 205.570312 99.8125 205.570312 98.003906 L 205.570312 93.882812 C 205.570312 92.074219 204.101562 90.605469 202.292969 90.605469 L 172.832031 90.605469 C 171.023438 90.605469 169.554688 92.074219 169.554688 93.882812 L 169.554688 98.003906 C 169.554688 99.8125 171.023438 101.28125 172.832031 101.28125 C 174.449219 101.28125 175.824219 102.460938 176.070312 104.058594 L 176.648438 107.773438 C 167.703125 111.902344 161.496094 120.949219 161.496094 131.449219 C 161.496094 138.003906 163.914062 143.992188 167.910156 148.570312 C 163.242188 149.910156 159.371094 151.792969 156.945312 154.21875 C 154.160156 157.003906 156.945312 169.96875 156.945312 169.96875 L 218.179688 169.96875 C 218.179688 169.96875 220.964844 157.003906 218.179688 154.21875 " fill-opacity="1" fill-rule="nonzero"/></g><g fill="#393536" fill-opacity="1"><g transform="translate(115.306929, 261.449176)"><g><path d="M 1.109375 0 L 1.03125 -1.625 L 2.890625 -2.140625 C 2.890625 -2.253906 2.894531 -2.488281 2.90625 -2.84375 C 2.914062 -3.195312 2.925781 -3.613281 2.9375 -4.09375 C 2.945312 -4.570312 2.957031 -5.046875 2.96875 -5.515625 C 2.976562 -5.984375 2.984375 -6.378906 2.984375 -6.703125 L 2.984375 -10.140625 C 2.984375 -10.878906 2.972656 -11.578125 2.953125 -12.234375 C 2.929688 -12.898438 2.898438 -13.453125 2.859375 -13.890625 C 2.828125 -14.328125 2.789062 -14.578125 2.75 -14.640625 L 0.890625 -15.171875 L 0.96875 -16.8125 L 9.078125 -16.8125 C 11.523438 -16.8125 13.3125 -16.457031 14.4375 -15.75 C 15.5625 -15.039062 16.125 -13.894531 16.125 -12.3125 C 16.125 -11.375 15.820312 -10.535156 15.21875 -9.796875 C 14.625 -9.066406 13.796875 -8.492188 12.734375 -8.078125 C 11.671875 -7.660156 10.453125 -7.453125 9.078125 -7.453125 L 6.984375 -7.453125 L 6.984375 -9.34375 L 8.28125 -9.34375 C 9.101562 -9.34375 9.78125 -9.628906 10.3125 -10.203125 C 10.84375 -10.785156 11.109375 -11.535156 11.109375 -12.453125 C 11.109375 -13.273438 10.890625 -13.90625 10.453125 -14.34375 C 10.015625 -14.78125 9.375 -15 8.53125 -15 L 7.796875 -15 C 7.796875 -14.925781 7.789062 -14.707031 7.78125 -14.34375 C 7.769531 -13.988281 7.757812 -13.554688 7.75 -13.046875 C 7.738281 -12.535156 7.734375 -12.019531 7.734375 -11.5 C 7.734375 -10.988281 7.734375 -10.554688 7.734375 -10.203125 L 7.734375 -6.703125 C 7.734375 -6.398438 7.738281 -5.953125 7.75 -5.359375 C 7.757812 -4.765625 7.769531 -4.164062 7.78125 -3.5625 C 7.789062 -2.957031 7.796875 -2.484375 7.796875 -2.140625 L 9.34375 -1.625 L 9.25 0 Z M 16.921875 0.375 C 15.722656 0.375 14.644531 0.191406 13.6875 -0.171875 C 12.738281 -0.535156 11.921875 -1.066406 11.234375 -1.765625 C 10.554688 -2.472656 10.007812 -3.34375 9.59375 -4.375 L 8.1875 -7.90625 L 12 -8.796875 L 15.609375 -3.921875 C 15.910156 -3.535156 16.242188 -3.175781 16.609375 -2.84375 C 16.972656 -2.507812 17.363281 -2.210938 17.78125 -1.953125 C 18.207031 -1.703125 18.65625 -1.5 19.125 -1.34375 L 19.109375 0.171875 C 18.722656 0.242188 18.351562 0.296875 18 0.328125 C 17.644531 0.359375 17.285156 0.375 16.921875 0.375 Z M 16.921875 0.375 "/></g></g></g><g fill="#393536" fill-opacity="1"><g transform="translate(136.931702, 261.449176)"><g><path d="M 0 0 L -0.078125 -1.625 L 1.4375 -2.171875 L 7.21875 -15.75 L 10.046875 -17.328125 L 16.875 -2.171875 L 18.390625 -1.625 L 18.296875 0 L 9.453125 0 L 9.3125 -1.625 L 11.203125 -2.171875 L 9.796875 -5.46875 L 9.484375 -6.53125 L 6.765625 -12.65625 L 7.734375 -12.03125 L 5.734375 -6.671875 L 5.46875 -5.8125 L 4.203125 -2.171875 L 6.09375 -1.625 L 6.015625 0 Z M 4.640625 -4.578125 L 4.640625 -6.8125 C 5.035156 -6.789062 5.4375 -6.757812 5.84375 -6.71875 C 6.257812 -6.6875 6.832031 -6.671875 7.5625 -6.671875 C 8.269531 -6.671875 8.84375 -6.6875 9.28125 -6.71875 C 9.71875 -6.757812 10.128906 -6.789062 10.515625 -6.8125 L 10.515625 -4.609375 C 10.359375 -4.609375 10.050781 -4.617188 9.59375 -4.640625 C 9.132812 -4.660156 8.457031 -4.671875 7.5625 -4.671875 C 6.625 -4.671875 5.941406 -4.660156 5.515625 -4.640625 C 5.085938 -4.617188 4.796875 -4.597656 4.640625 -4.578125 Z M 4.640625 -4.578125 "/></g></g></g><g fill="#393536" fill-opacity="1"><g transform="translate(157.554089, 261.449176)"><g><path d="M 0.9375 0 L 0.859375 -1.625 L 2.71875 -2.171875 C 2.757812 -2.253906 2.796875 -2.515625 2.828125 -2.953125 C 2.867188 -3.390625 2.898438 -3.941406 2.921875 -4.609375 C 2.941406 -5.273438 2.953125 -5.972656 2.953125 -6.703125 L 2.953125 -10.140625 C 2.953125 -10.878906 2.941406 -11.582031 2.921875 -12.25 C 2.898438 -12.925781 2.867188 -13.488281 2.828125 -13.9375 C 2.796875 -14.382812 2.757812 -14.632812 2.71875 -14.6875 L 0.859375 -15.171875 L 0.9375 -16.8125 L 9.703125 -16.8125 L 9.796875 -15.171875 L 7.9375 -14.6875 C 7.894531 -14.59375 7.859375 -14.304688 7.828125 -13.828125 C 7.804688 -13.359375 7.785156 -12.785156 7.765625 -12.109375 C 7.742188 -11.441406 7.734375 -10.785156 7.734375 -10.140625 L 7.734375 -6.703125 C 7.734375 -6.066406 7.742188 -5.421875 7.765625 -4.765625 C 7.785156 -4.109375 7.804688 -3.539062 7.828125 -3.0625 C 7.859375 -2.582031 7.894531 -2.285156 7.9375 -2.171875 L 9.796875 -1.625 L 9.703125 0 Z M 0.9375 0 "/></g></g></g><g fill="#393536" fill-opacity="1"><g transform="translate(170.758824, 261.449176)"><g><path d="M 14.890625 0.234375 C 14.296875 0.171875 13.628906 0.117188 12.890625 0.078125 C 12.160156 0.046875 11.472656 0.0234375 10.828125 0.015625 C 10.179688 0.00390625 9.6875 0 9.34375 0 L 0.96875 0 L 0.890625 -1.625 L 2.75 -2.171875 C 2.789062 -2.265625 2.820312 -2.554688 2.84375 -3.046875 C 2.875 -3.535156 2.898438 -4.109375 2.921875 -4.765625 C 2.941406 -5.421875 2.953125 -6.066406 2.953125 -6.703125 L 2.953125 -10.140625 C 2.953125 -10.804688 2.941406 -11.46875 2.921875 -12.125 C 2.898438 -12.789062 2.875 -13.351562 2.84375 -13.8125 C 2.820312 -14.28125 2.789062 -14.566406 2.75 -14.671875 L 0.890625 -15.171875 L 0.96875 -16.8125 L 10.25 -16.8125 L 10.34375 -15.125 L 7.96875 -14.609375 C 7.945312 -14.546875 7.914062 -14.289062 7.875 -13.84375 C 7.832031 -13.394531 7.800781 -12.84375 7.78125 -12.1875 C 7.769531 -11.53125 7.765625 -10.847656 7.765625 -10.140625 L 7.765625 -6.703125 C 7.765625 -5.484375 7.769531 -4.554688 7.78125 -3.921875 C 7.800781 -3.296875 7.84375 -2.835938 7.90625 -2.546875 C 8.269531 -2.492188 8.640625 -2.457031 9.015625 -2.4375 C 9.398438 -2.414062 9.859375 -2.40625 10.390625 -2.40625 L 10.96875 -2.40625 C 11.289062 -2.40625 11.628906 -2.425781 11.984375 -2.46875 C 12.335938 -2.519531 12.582031 -2.566406 12.71875 -2.609375 L 14.375 -5.921875 L 16.4375 -5.40625 Z M 14.890625 0.234375 "/></g></g></g><g fill="#393536" fill-opacity="1"><g transform="translate(189.891955, 261.449176)"><g><path d="M 14.71875 -10.9375 L 9.875 0.078125 L 8.15625 0.078125 L 1.40625 -14.640625 L -0.109375 -15.171875 L -0.03125 -16.8125 L 8.21875 -16.8125 L 8.3125 -15.171875 L 6.90625 -14.640625 L 11.34375 -4.40625 L 9.484375 -4.40625 L 13.203125 -13.640625 Z M 18.953125 0.078125 L 12.0625 -14.640625 L 10.65625 -15.171875 L 10.734375 -16.8125 L 19.1875 -16.8125 L 19.28125 -15.171875 L 17.40625 -14.640625 L 21.9375 -4.40625 L 20.421875 -4.40625 L 24.375 -14.640625 L 22.453125 -15.171875 L 22.546875 -16.8125 L 28.8125 -16.8125 L 28.90625 -15.171875 L 27.375 -14.640625 L 20.671875 0.078125 Z M 18.953125 0.078125 "/></g></g></g><g fill="#393536" fill-opacity="1"><g transform="translate(221.225547, 261.449176)"><g><path d="M 0 0 L -0.078125 -1.625 L 1.4375 -2.171875 L 7.21875 -15.75 L 10.046875 -17.328125 L 16.875 -2.171875 L 18.390625 -1.625 L 18.296875 0 L 9.453125 0 L 9.3125 -1.625 L 11.203125 -2.171875 L 9.796875 -5.46875 L 9.484375 -6.53125 L 6.765625 -12.65625 L 7.734375 -12.03125 L 5.734375 -6.671875 L 5.46875 -5.8125 L 4.203125 -2.171875 L 6.09375 -1.625 L 6.015625 0 Z M 4.640625 -4.578125 L 4.640625 -6.8125 C 5.035156 -6.789062 5.4375 -6.757812 5.84375 -6.71875 C 6.257812 -6.6875 6.832031 -6.671875 7.5625 -6.671875 C 8.269531 -6.671875 8.84375 -6.6875 9.28125 -6.71875 C 9.71875 -6.757812 10.128906 -6.789062 10.515625 -6.8125 L 10.515625 -4.609375 C 10.359375 -4.609375 10.050781 -4.617188 9.59375 -4.640625 C 9.132812 -4.660156 8.457031 -4.671875 7.5625 -4.671875 C 6.625 -4.671875 5.941406 -4.660156 5.515625 -4.640625 C 5.085938 -4.617188 4.796875 -4.597656 4.640625 -4.578125 Z M 4.640625 -4.578125 "/></g></g></g><g fill="#393536" fill-opacity="1"><g transform="translate(241.84793, 261.449176)"><g><path d="M 15.890625 -14.640625 L 9.65625 -4.578125 L 11.25 -8.046875 L 11.25 -5.09375 C 11.25 -4.976562 11.25 -4.773438 11.25 -4.484375 C 11.25 -4.203125 11.257812 -3.894531 11.28125 -3.5625 C 11.300781 -3.226562 11.320312 -2.925781 11.34375 -2.65625 C 11.363281 -2.394531 11.390625 -2.234375 11.421875 -2.171875 L 13.4375 -1.65625 L 13.34375 0 L 4.46875 0 L 4.375 -1.65625 L 6.390625 -2.171875 C 6.421875 -2.234375 6.441406 -2.394531 6.453125 -2.65625 C 6.460938 -2.925781 6.476562 -3.226562 6.5 -3.5625 C 6.519531 -3.894531 6.53125 -4.203125 6.53125 -4.484375 C 6.53125 -4.773438 6.53125 -4.976562 6.53125 -5.09375 L 6.53125 -8.046875 L 7.671875 -4.578125 L 1.921875 -14.640625 L 0.453125 -15.171875 L 0.546875 -16.8125 L 9.171875 -16.8125 L 9.25 -15.171875 L 7.390625 -14.640625 L 10.6875 -8.734375 L 9.859375 -8.734375 L 13.171875 -14.640625 L 11.171875 -15.171875 L 11.25 -16.8125 L 17.265625 -16.8125 L 17.359375 -15.171875 Z M 15.890625 -14.640625 "/></g></g></g><g fill="#393536" fill-opacity="1"><g transform="translate(157.224254, 281.29324)"><g><path d="M 0.53125 -6.46875 L 2.84375 -6.46875 L 5.140625 -1.59375 L 4.828125 -1.59375 L 6.890625 -6.46875 L 9.21875 -6.46875 L 9.25 -5.921875 L 8.546875 -5.75 C 8.535156 -5.644531 8.535156 -5.476562 8.546875 -5.25 C 8.554688 -5.019531 8.566406 -4.722656 8.578125 -4.359375 L 8.640625 -2.4375 C 8.648438 -2.125 8.660156 -1.847656 8.671875 -1.609375 C 8.691406 -1.367188 8.707031 -1.171875 8.71875 -1.015625 C 8.726562 -0.859375 8.738281 -0.765625 8.75 -0.734375 L 9.453125 -0.546875 L 9.421875 0 L 6.421875 0 L 6.390625 -0.546875 L 7.09375 -0.734375 C 7.101562 -0.765625 7.109375 -0.847656 7.109375 -0.984375 C 7.109375 -1.128906 7.109375 -1.320312 7.109375 -1.5625 C 7.109375 -1.800781 7.109375 -2.085938 7.109375 -2.421875 L 7.078125 -6.140625 L 7.578125 -6.140625 L 4.953125 0.03125 L 4.265625 0.03125 L 1.328125 -6.140625 L 2.015625 -6.140625 L 2.03125 -2.359375 C 2.03125 -1.796875 2.03125 -1.394531 2.03125 -1.15625 C 2.039062 -0.914062 2.050781 -0.773438 2.0625 -0.734375 L 2.828125 -0.546875 L 2.78125 0 L 0.375 0 L 0.34375 -0.546875 L 1.109375 -0.734375 C 1.117188 -0.773438 1.125 -0.875 1.125 -1.03125 C 1.132812 -1.1875 1.140625 -1.375 1.140625 -1.59375 C 1.148438 -1.8125 1.15625 -2.039062 1.15625 -2.28125 L 1.1875 -4.34375 C 1.195312 -4.726562 1.195312 -5.03125 1.1875 -5.25 C 1.1875 -5.476562 1.1875 -5.640625 1.1875 -5.734375 L 0.5 -5.921875 Z M 0.53125 -6.46875 "/></g></g></g><g fill="#393536" fill-opacity="1"><g transform="translate(168.267775, 281.29324)"><g><path d="M -0.015625 0 L -0.046875 -0.546875 L 0.53125 -0.734375 L 2.765625 -6.140625 L 3.6875 -6.671875 L 6.21875 -0.734375 L 6.796875 -0.546875 L 6.765625 0 L 3.8125 0 L 3.78125 -0.546875 L 4.484375 -0.734375 L 3.890625 -2.140625 L 3.765625 -2.515625 L 2.671875 -5.125 L 2.984375 -5.03125 L 2.078125 -2.5625 L 1.96875 -2.21875 L 1.4375 -0.734375 L 2.140625 -0.546875 L 2.109375 0 Z M 1.703125 -1.875 L 1.703125 -2.625 C 1.847656 -2.613281 2.015625 -2.601562 2.203125 -2.59375 C 2.390625 -2.582031 2.632812 -2.578125 2.9375 -2.578125 C 3.226562 -2.578125 3.472656 -2.582031 3.671875 -2.59375 C 3.867188 -2.601562 4.035156 -2.613281 4.171875 -2.625 L 4.171875 -1.890625 C 4.035156 -1.890625 3.867188 -1.890625 3.671875 -1.890625 C 3.472656 -1.898438 3.226562 -1.90625 2.9375 -1.90625 C 2.632812 -1.90625 2.390625 -1.898438 2.203125 -1.890625 C 2.015625 -1.890625 1.847656 -1.882812 1.703125 -1.875 Z M 1.703125 -1.875 "/></g></g></g><g fill="#393536" fill-opacity="1"><g transform="translate(176.205283, 281.29324)"><g><path d="M 5.5 0.078125 C 5.3125 0.0546875 5.101562 0.0390625 4.875 0.03125 C 4.65625 0.0195312 4.441406 0.0078125 4.234375 0 C 4.035156 0 3.878906 0 3.765625 0 L 0.421875 0 L 0.390625 -0.546875 L 1.109375 -0.734375 C 1.117188 -0.765625 1.125 -0.863281 1.125 -1.03125 C 1.132812 -1.195312 1.144531 -1.398438 1.15625 -1.640625 C 1.164062 -1.890625 1.171875 -2.148438 1.171875 -2.421875 L 1.171875 -4.03125 C 1.171875 -4.320312 1.164062 -4.585938 1.15625 -4.828125 C 1.144531 -5.078125 1.132812 -5.28125 1.125 -5.4375 C 1.125 -5.601562 1.117188 -5.703125 1.109375 -5.734375 L 0.390625 -5.921875 L 0.421875 -6.46875 L 3.609375 -6.46875 L 3.640625 -5.890625 L 2.734375 -5.734375 C 2.722656 -5.710938 2.710938 -5.625 2.703125 -5.46875 C 2.691406 -5.3125 2.679688 -5.109375 2.671875 -4.859375 C 2.671875 -4.617188 2.671875 -4.34375 2.671875 -4.03125 L 2.671875 -2.421875 C 2.671875 -1.992188 2.671875 -1.648438 2.671875 -1.390625 C 2.679688 -1.128906 2.691406 -0.953125 2.703125 -0.859375 C 2.828125 -0.835938 2.957031 -0.820312 3.09375 -0.8125 C 3.226562 -0.800781 3.390625 -0.796875 3.578125 -0.796875 L 4 -0.796875 C 4.15625 -0.796875 4.296875 -0.800781 4.421875 -0.8125 C 4.546875 -0.832031 4.648438 -0.851562 4.734375 -0.875 L 5.359375 -2.078125 L 6.03125 -1.90625 Z M 5.5 0.078125 "/></g></g></g><g fill="#393536" fill-opacity="1"><g transform="translate(183.503965, 281.29324)"><g><path d="M -0.015625 0 L -0.046875 -0.546875 L 0.53125 -0.734375 L 2.765625 -6.140625 L 3.6875 -6.671875 L 6.21875 -0.734375 L 6.796875 -0.546875 L 6.765625 0 L 3.8125 0 L 3.78125 -0.546875 L 4.484375 -0.734375 L 3.890625 -2.140625 L 3.765625 -2.515625 L 2.671875 -5.125 L 2.984375 -5.03125 L 2.078125 -2.5625 L 1.96875 -2.21875 L 1.4375 -0.734375 L 2.140625 -0.546875 L 2.109375 0 Z M 1.703125 -1.875 L 1.703125 -2.625 C 1.847656 -2.613281 2.015625 -2.601562 2.203125 -2.59375 C 2.390625 -2.582031 2.632812 -2.578125 2.9375 -2.578125 C 3.226562 -2.578125 3.472656 -2.582031 3.671875 -2.59375 C 3.867188 -2.601562 4.035156 -2.613281 4.171875 -2.625 L 4.171875 -1.890625 C 4.035156 -1.890625 3.867188 -1.890625 3.671875 -1.890625 C 3.472656 -1.898438 3.226562 -1.90625 2.9375 -1.90625 C 2.632812 -1.90625 2.390625 -1.898438 2.203125 -1.890625 C 2.015625 -1.890625 1.847656 -1.882812 1.703125 -1.875 Z M 1.703125 -1.875 "/></g></g></g><g fill="#393536" fill-opacity="1"><g transform="translate(191.441473, 281.29324)"><g><path d="M 5.8125 -5.734375 L 3.484375 -2.015625 L 3.953125 -3.125 L 3.953125 -2.015625 C 3.953125 -1.878906 3.953125 -1.738281 3.953125 -1.59375 C 3.960938 -1.457031 3.96875 -1.328125 3.96875 -1.203125 C 3.976562 -1.085938 3.988281 -0.984375 4 -0.890625 C 4.007812 -0.804688 4.015625 -0.753906 4.015625 -0.734375 L 4.796875 -0.5625 L 4.765625 0 L 1.6875 0 L 1.65625 -0.5625 L 2.421875 -0.734375 C 2.429688 -0.753906 2.4375 -0.804688 2.4375 -0.890625 C 2.445312 -0.984375 2.457031 -1.085938 2.46875 -1.203125 C 2.476562 -1.328125 2.484375 -1.457031 2.484375 -1.59375 C 2.484375 -1.738281 2.484375 -1.878906 2.484375 -2.015625 L 2.484375 -3.125 L 2.84375 -2.015625 L 0.640625 -5.734375 L 0.078125 -5.921875 L 0.109375 -6.46875 L 3.015625 -6.46875 L 3.046875 -5.921875 L 2.359375 -5.734375 L 3.75 -3.328125 L 3.5 -3.328125 L 4.890625 -5.734375 L 4.125 -5.921875 L 4.15625 -6.46875 L 6.34375 -6.46875 L 6.375 -5.921875 Z M 5.8125 -5.734375 "/></g></g></g><g fill="#393536" fill-opacity="1"><g transform="translate(199.125655, 281.29324)"><g><path d="M 2.59375 0.09375 C 2.269531 0.09375 1.921875 0.0507812 1.546875 -0.03125 C 1.179688 -0.125 0.867188 -0.242188 0.609375 -0.390625 L 0.546875 -2.015625 L 1.25 -2.0625 L 1.625 -0.921875 C 1.78125 -0.828125 1.957031 -0.75 2.15625 -0.6875 C 2.351562 -0.632812 2.546875 -0.609375 2.734375 -0.609375 C 3.066406 -0.609375 3.316406 -0.675781 3.484375 -0.8125 C 3.660156 -0.957031 3.75 -1.148438 3.75 -1.390625 C 3.75 -1.648438 3.671875 -1.851562 3.515625 -2 C 3.367188 -2.15625 3.171875 -2.285156 2.921875 -2.390625 C 2.679688 -2.503906 2.425781 -2.613281 2.15625 -2.71875 C 1.882812 -2.832031 1.628906 -2.960938 1.390625 -3.109375 C 1.148438 -3.265625 0.953125 -3.457031 0.796875 -3.6875 C 0.648438 -3.925781 0.578125 -4.234375 0.578125 -4.609375 C 0.578125 -5.003906 0.6875 -5.347656 0.90625 -5.640625 C 1.132812 -5.941406 1.453125 -6.175781 1.859375 -6.34375 C 2.265625 -6.507812 2.734375 -6.59375 3.265625 -6.59375 C 3.441406 -6.59375 3.628906 -6.578125 3.828125 -6.546875 C 4.023438 -6.523438 4.210938 -6.488281 4.390625 -6.4375 C 4.578125 -6.394531 4.738281 -6.347656 4.875 -6.296875 L 5 -4.6875 L 4.296875 -4.640625 L 3.9375 -5.71875 C 3.71875 -5.832031 3.457031 -5.890625 3.15625 -5.890625 C 2.851562 -5.890625 2.601562 -5.8125 2.40625 -5.65625 C 2.21875 -5.507812 2.125 -5.300781 2.125 -5.03125 C 2.125 -4.789062 2.203125 -4.59375 2.359375 -4.4375 C 2.515625 -4.28125 2.710938 -4.144531 2.953125 -4.03125 C 3.203125 -3.914062 3.460938 -3.800781 3.734375 -3.6875 C 4.015625 -3.582031 4.273438 -3.453125 4.515625 -3.296875 C 4.753906 -3.148438 4.953125 -2.960938 5.109375 -2.734375 C 5.265625 -2.503906 5.34375 -2.210938 5.34375 -1.859375 C 5.34375 -1.484375 5.226562 -1.144531 5 -0.84375 C 4.769531 -0.550781 4.445312 -0.320312 4.03125 -0.15625 C 3.625 0.0078125 3.144531 0.09375 2.59375 0.09375 Z M 2.59375 0.09375 "/></g></g></g><g fill="#393536" fill-opacity="1"><g transform="translate(206.005797, 281.29324)"><g><path d="M 0.421875 0 L 0.390625 -0.546875 L 1.078125 -0.734375 C 1.097656 -0.765625 1.113281 -0.859375 1.125 -1.015625 C 1.132812 -1.171875 1.140625 -1.367188 1.140625 -1.609375 C 1.148438 -1.859375 1.15625 -2.128906 1.15625 -2.421875 L 1.15625 -4.03125 C 1.15625 -4.34375 1.148438 -4.617188 1.140625 -4.859375 C 1.140625 -5.109375 1.132812 -5.3125 1.125 -5.46875 C 1.113281 -5.625 1.097656 -5.710938 1.078125 -5.734375 L 0.390625 -5.921875 L 0.421875 -6.46875 L 3.375 -6.46875 L 3.421875 -5.921875 L 2.703125 -5.734375 C 2.691406 -5.710938 2.679688 -5.617188 2.671875 -5.453125 C 2.660156 -5.296875 2.648438 -5.09375 2.640625 -4.84375 C 2.640625 -4.601562 2.640625 -4.332031 2.640625 -4.03125 L 2.640625 -2.421875 C 2.640625 -2.140625 2.640625 -1.875 2.640625 -1.625 C 2.648438 -1.382812 2.660156 -1.1875 2.671875 -1.03125 C 2.679688 -0.875 2.691406 -0.773438 2.703125 -0.734375 L 3.421875 -0.546875 L 3.375 0 Z M 0.421875 0 "/></g></g></g><g fill="#393536" fill-opacity="1"><g transform="translate(211.035549, 281.29324)"><g><path d="M -0.015625 0 L -0.046875 -0.546875 L 0.53125 -0.734375 L 2.765625 -6.140625 L 3.6875 -6.671875 L 6.21875 -0.734375 L 6.796875 -0.546875 L 6.765625 0 L 3.8125 0 L 3.78125 -0.546875 L 4.484375 -0.734375 L 3.890625 -2.140625 L 3.765625 -2.515625 L 2.671875 -5.125 L 2.984375 -5.03125 L 2.078125 -2.5625 L 1.96875 -2.21875 L 1.4375 -0.734375 L 2.140625 -0.546875 L 2.109375 0 Z M 1.703125 -1.875 L 1.703125 -2.625 C 1.847656 -2.613281 2.015625 -2.601562 2.203125 -2.59375 C 2.390625 -2.582031 2.632812 -2.578125 2.9375 -2.578125 C 3.226562 -2.578125 3.472656 -2.582031 3.671875 -2.59375 C 3.867188 -2.601562 4.035156 -2.613281 4.171875 -2.625 L 4.171875 -1.890625 C 4.035156 -1.890625 3.867188 -1.890625 3.671875 -1.890625 C 3.472656 -1.898438 3.226562 -1.90625 2.9375 -1.90625 C 2.632812 -1.90625 2.390625 -1.898438 2.203125 -1.890625 C 2.015625 -1.890625 1.847656 -1.882812 1.703125 -1.875 Z M 1.703125 -1.875 "/></g></g></g></svg>